<?xml version="1.0" standalone="no"?>
<!DOCTYPE svg PUBLIC "-//W3C//DTD SVG 20010904//EN"
 "http://www.w3.org/TR/2001/REC-SVG-20010904/DTD/svg10.dtd">
<svg version="1.0" xmlns="http://www.w3.org/2000/svg"
 width="480.000000pt" height="480.000000pt" viewBox="0 0 480.000000 480.000000"
 preserveAspectRatio="xMidYMid meet">
<metadata>
Created by potrace 1.14, written by Peter Selinger 2001-2017
</metadata>
<g transform="translate(0.000000,480.000000) scale(0.100000,-0.100000)"
fill="#000000" stroke="none">
<path d="M1715 4390 c-72 -35 -279 -132 -355 -167 -83 -38 -82 -35 -45 -109
l33 -65 -22 -9 c-68 -26 -320 -246 -439 -385 -120 -139 -127 -149 -127 -184 0
-23 12 -33 140 -108 52 -30 109 -64 125 -74 17 -10 37 -22 45 -25 8 -4 22 -13
30 -19 38 -32 121 -67 144 -61 13 3 46 33 72 67 56 69 132 145 219 219 l60 50
22 -47 c12 -27 42 -91 67 -143 24 -52 60 -130 80 -172 20 -43 39 -78 42 -78 3
0 51 22 107 49 125 60 261 124 344 162 l62 28 -45 93 c-25 51 -53 111 -62 133
-9 22 -35 78 -58 125 -47 96 -48 92 41 105 123 19 293 24 395 12 122 -14 142
-17 151 -22 5 -4 19 -8 31 -10 74 -15 216 -68 318 -119 73 -37 203 -118 228
-143 31 -30 64 -8 170 114 18 21 55 62 82 92 103 112 151 171 155 190 2 12 -7
30 -22 45 -31 31 -232 165 -288 193 -22 10 -49 24 -60 30 -163 90 -422 169
-655 200 -58 8 -460 7 -524 0 -84 -11 -230 -39 -270 -54 -22 -7 -40 -12 -42
-11 -8 9 -54 108 -54 117 0 18 -32 12 -95 -19z"/>
<path d="M3965 3370 c-76 -49 -146 -93 -154 -99 -9 -6 -47 -31 -86 -54 -78
-48 -89 -72 -58 -116 23 -32 106 -200 129 -261 9 -25 30 -94 46 -155 29 -105
30 -120 31 -315 1 -236 -1 -261 -39 -400 -20 -71 -38 -120 -75 -205 -31 -71
-31 -75 1 -105 17 -16 40 -32 52 -36 11 -3 46 -21 77 -38 175 -100 306 -169
325 -170 13 -1 29 10 42 29 27 40 124 286 124 317 0 5 6 25 14 45 19 52 44
185 50 268 2 23 6 51 10 63 9 28 11 386 3 400 -4 5 -9 36 -11 68 -10 114 -44
271 -86 389 -11 33 -25 74 -30 91 -14 45 -145 305 -169 335 -11 15 -29 29 -39
31 -12 4 -69 -26 -157 -82z"/>
<path d="M602 3218 c-20 -25 -63 -134 -64 -162 -1 -21 6 -35 22 -45 21 -14
146 -64 280 -113 52 -19 100 -39 146 -60 11 -5 36 -8 55 -6 31 3 37 9 62 61
50 107 46 122 -50 162 -99 41 -194 84 -225 100 -49 27 -173 75 -194 75 -12 0
-26 -6 -32 -12z"/>
<path d="M441 2713 c-6 -21 -14 -81 -17 -134 -8 -110 -6 -112 66 -117 25 -1
70 -4 100 -7 250 -22 348 -29 377 -26 19 2 34 38 39 90 2 25 6 63 8 84 6 46
-14 62 -94 72 -30 4 -64 9 -75 11 -41 9 -61 13 -105 19 -25 3 -63 11 -85 16
-45 11 -65 14 -147 23 l-57 6 -10 -37z"/>
<path d="M887 2284 c-6 -6 -51 -8 -325 -18 -69 -2 -118 -9 -127 -16 -23 -19
-17 -191 10 -300 3 -14 8 -34 9 -45 7 -41 34 -144 41 -154 11 -19 65 -12 155
18 47 16 148 48 225 72 141 43 175 60 175 87 0 8 -9 53 -21 101 -12 47 -22
102 -24 121 -3 53 -16 113 -28 128 -10 12 -79 17 -90 6z"/>
<path d="M3573 1463 c-15 -21 -42 -53 -60 -72 -65 -66 -54 -94 78 -212 39 -35
113 -106 165 -157 79 -78 98 -92 120 -88 57 11 194 167 194 222 0 34 -21 52
-330 281 -36 26 -66 51 -68 56 -2 4 -19 7 -37 7 -28 0 -39 -7 -62 -37z"/>
<path d="M1250 1453 c-8 -3 -31 -20 -51 -37 -46 -39 -88 -74 -130 -106 -168
-127 -229 -183 -229 -209 0 -21 29 -55 138 -163 75 -75 155 -152 177 -171 46
-40 228 -167 271 -189 16 -8 54 -29 84 -45 108 -60 321 -138 450 -164 185 -38
227 -42 480 -42 192 -1 267 3 360 17 113 18 291 69 409 118 130 54 271 129
272 145 1 7 2 19 3 26 2 10 -12 38 -49 99 -5 9 -45 71 -87 138 -43 67 -78 123
-78 126 0 3 -16 26 -36 50 -25 30 -44 44 -60 44 -13 0 -70 -22 -127 -49 -101
-48 -232 -94 -297 -106 -18 -3 -36 -7 -39 -9 -6 -4 -65 -13 -146 -22 -58 -7
-193 -7 -245 0 -25 3 -65 9 -90 12 -25 3 -72 12 -105 21 -33 8 -71 17 -85 20
-28 5 -128 43 -215 83 -54 25 -211 123 -267 167 -12 10 -63 58 -112 106 -153
150 -158 154 -196 140z"/>
</g>
</svg>
